<?xml version="1.0" encoding="utf-8"?>
<!-- Generator: Adobe Illustrator 21.0.0, SVG Export Plug-In . SVG Version: 6.00 Build 0)  -->
<svg version="1.1" id="Layer_2" xmlns="http://www.w3.org/2000/svg" xmlns:xlink="http://www.w3.org/1999/xlink" x="0px" y="0px"
	 width="145px" height="145px" viewBox="0 0 145 145" style="enable-background:new 0 0 145 145;" xml:space="preserve">
<style type="text/css">
	.st0{fill:#F2F2F2;}
	.st1{fill:#D8D8D8;}
	.st2{fill:#243EC6;}
	.st3{fill:#180293;}
	.st4{fill:#2579DC;}
	.st5{fill:#DE4F03;}
	.st6{fill:#FF8C42;}
	.st7{fill:#FFFFFF;}
	.st8{fill:none;stroke:#FFFFFF;stroke-width:2;stroke-miterlimit:10;}
	.st9{fill:none;stroke:#DE4F03;stroke-width:2;stroke-linecap:round;stroke-miterlimit:10;}
</style>
<g>
	<circle class="st0" cx="72" cy="73" r="65"/>
	<ellipse class="st1" cx="72" cy="123" rx="25" ry="10"/>
</g>
<path class="st2" d="M118,62C100,33,75,11,66,7C66,62,118,62,118,62z"/>
<path class="st3" d="M97.2,56.2C118,51,125,69,119,81c-4.1,8.2-7.7,16.1-13.3,26.5c-0.7,1.3-2.4,1.8-3.7,1.1L22,64.5
	c-1.3-0.7-1.8-2.4-1.1-3.7L53,2.4c0.7-1.3,2.3-1.8,3.6-1.1C64.2,5.4,55.7,0.5,65,6C79.4,14.5,97,41,97.2,56.2z"/>
<g>
	<path class="st4" d="M113.5,75.5c-3,6.3-6.5,12.4-9.7,18.6c-0.1,0.1-0.2,0.2-0.3,0.1l0,0l0,0c-1.2-0.7-2.7-0.8-4.1-0.4
		c-1.3,0.4-2.5,1.4-3.1,2.6c-0.1,0.1-0.3,0.2-0.4,0.1l0,0l0,0C85.7,91,75.4,85.4,65.2,79.8l-15.3-8.4l-15.3-8.5
		c-0.2-0.1-0.3-0.4-0.2-0.6l0,0c0.6-1.2,0.8-2.6,0.4-3.8c-0.4-1.3-1.2-2.4-2.4-3c-0.2-0.1-0.3-0.4-0.2-0.6l0,0l10.9-19.6
		c3.7-6.5,7.3-13,11-19.5l0,0c0-0.1,0.1-0.1,0.2-0.1c1.2,0.6,2.7,0.8,4,0.3c1.3-0.4,2.5-1.3,3.2-2.5c0,0,0.1,0,0.1,0l0.3,0.1
		c0.1,0,0.2,0.1,0.3,0.1l0.5,0.3l1.1,0.7l2.2,1.3l-2.2-1.3l-1.1-0.6l-0.5-0.3c-0.1,0-0.2-0.1-0.2-0.1c-0.2,0-0.2-0.1-0.3-0.1l0.1,0
		c-0.7,1.3-1.8,2.2-3.2,2.7c-1.4,0.5-2.9,0.4-4.2-0.3l0.2-0.1c-3.5,6.6-7.1,13.1-10.7,19.7L33,55.2l-0.2-0.6
		c1.4,0.7,2.4,2.1,2.9,3.6c0.4,1.5,0.3,3.2-0.5,4.6L35,62.1l15.3,8.4L65.6,79C75.8,84.6,86,90.3,96.2,96l-0.4,0.1
		c0.7-1.4,2-2.4,3.5-2.9c1.5-0.4,3.1-0.3,4.5,0.5l-0.3,0.1C106.7,87.7,110.3,81.7,113.5,75.5z"/>
</g>
<path class="st5" d="M55.1,76l-14.5,25.3c-0.7,1.1,0.2,2.5,1.5,2.4l6-0.5l2.1,4.6c0.6,1.2,2.2,1.3,2.9,0.1l14.3-24.9L55.1,76z"/>
<path class="st5" d="M59,80.9l0,29.2c0,1.3,1.5,2.1,2.6,1.3l4.8-3.3l4.1,2.9c1.1,0.8,2.6,0,2.6-1.3L73,81L59,80.9z"/>
<path class="st5" d="M47.4,73.6L47.4,73.6c-0.6-2.7,1-5.5,3.7-6.2l0,0c1.5-0.4,2.8-1.5,3.4-3l0,0c1.1-2.6,4-3.8,6.6-2.8h0
	c1.5,0.6,3.2,0.4,4.5-0.4l0,0c2.4-1.4,5.5-0.7,7,1.6v0c0.9,1.3,2.3,2.2,3.9,2.4h0c2.8,0.2,4.9,2.7,4.7,5.5v0
	c-0.1,1.6,0.6,3.1,1.8,4.2l0,0c2.1,1.8,2.4,5,0.6,7.2l0,0c-1,1.2-1.4,2.9-1,4.4v0c0.6,2.7-1,5.5-3.7,6.2h0c-1.5,0.4-2.8,1.5-3.4,3v0
	c-1.1,2.6-4,3.8-6.6,2.8l0,0c-1.5-0.6-3.2-0.4-4.5,0.4h0c-2.4,1.4-5.5,0.7-7-1.6h0c-0.9-1.3-2.3-2.2-3.9-2.4h0
	c-2.8-0.2-4.9-2.7-4.7-5.5v0c0.1-1.6-0.6-3.1-1.8-4.2l0,0c-2.1-1.8-2.4-5-0.6-7.2l0,0C47.4,76.8,47.7,75.1,47.4,73.6z"/>
<g>
	<path class="st6" d="M61.2,61.6c1.2,0.3,2.5,0.3,3.6-0.2c0.3-0.1,0.5-0.3,0.8-0.4c0.3-0.2,0.6-0.3,0.9-0.5c0.6-0.3,1.3-0.4,2-0.4
		c1.4-0.1,2.7,0.4,3.8,1.3c0.3,0.2,0.5,0.5,0.7,0.7l0.3,0.4c0.1,0.1,0.2,0.2,0.3,0.3c0.4,0.4,0.8,0.8,1.3,1.1c0.5,0.3,1,0.5,1.6,0.6
		c0.1,0,0.3,0,0.4,0.1l0.5,0.1c0.3,0.1,0.7,0.2,1,0.3c1.3,0.5,2.4,1.5,2.9,2.7c0.3,0.6,0.5,1.3,0.5,1.9c0,0.3,0,0.7,0,1
		c0,0.3,0,0.6,0,0.9c0.1,1.2,0.6,2.4,1.5,3.3c-1-0.7-1.7-1.9-2-3.2c-0.1-0.3-0.1-0.7-0.1-1c0-0.3,0-0.6-0.1-0.9
		c-0.1-0.6-0.3-1.1-0.6-1.6c-0.6-1-1.5-1.8-2.6-2.2c-0.3-0.1-0.5-0.2-0.8-0.2l-0.4-0.1c-0.2,0-0.3,0-0.5-0.1
		c-0.7-0.1-1.3-0.4-1.9-0.7c-0.6-0.4-1.1-0.8-1.5-1.4c-0.1-0.1-0.2-0.3-0.3-0.4l-0.2-0.3c-0.2-0.2-0.4-0.4-0.6-0.6
		c-0.8-0.8-2-1.2-3.1-1.3c-0.6,0-1.2,0.1-1.7,0.2c-0.3,0.1-0.5,0.2-0.8,0.4c-0.3,0.2-0.6,0.3-0.9,0.4C63.7,62.2,62.3,62.2,61.2,61.6
		z"/>
</g>
<g>
	<path class="st4" d="M65,6c4.4,2.6,8.3,6,11.8,9.7c3.5,3.7,6.7,7.8,9.6,12c2.8,4.3,5.4,8.8,7.4,13.5c2,4.7,3.7,9.7,3.9,14.9
		l-0.6-0.4c1.8-0.4,3.6-0.7,5.4-0.8c1.8-0.1,3.7,0,5.5,0.3c3.6,0.6,7,2.5,9.4,5.4c2.4,2.8,3.7,6.4,3.9,10c0.2,3.6-0.5,7.3-2.2,10.5
		c1.5-3.3,2.1-6.9,1.8-10.4c-0.2-1.8-0.6-3.5-1.2-5.1c-0.7-1.6-1.6-3.2-2.7-4.5c-2.3-2.7-5.6-4.4-9-4.9c-1.7-0.3-3.5-0.4-5.2-0.3
		c-1.8,0.1-3.5,0.5-5.2,0.9c-0.3,0.1-0.5-0.1-0.6-0.4c0,0,0-0.1,0-0.1l0,0c-0.2-2.5-0.5-5-1.3-7.4L95,47c-0.2-0.6-0.4-1.2-0.6-1.8
		l-0.6-1.8l-0.8-1.7c-2-4.7-4.5-9.1-7.3-13.4c-2.8-4.3-5.8-8.4-9.2-12.1C73,12.3,69.3,8.8,65,6z"/>
</g>
<g>
	<path class="st7" d="M97.2,56.2c1.8-0.7,3.7-1.2,5.6-1.5c1.9-0.2,3.9-0.1,5.9,0.3c1.9,0.4,3.8,1.2,5.4,2.4c1.6,1.2,2.9,2.7,3.8,4.4
		c-1.4-1.4-2.8-2.5-4.4-3.5c-1.6-0.9-3.3-1.6-5.1-1.9c-1.8-0.4-3.6-0.6-5.5-0.6C101.1,55.9,99.2,56,97.2,56.2z"/>
</g>
<g>
	<path class="st7" d="M69.1,49.6c0,0,0.6,1.9,2.1,2.7c0.9,0.5,1.9,0.5,2.4-0.5c1.1-2-4.4-4.6-2.5-8c1-1.9,3.4-2.4,5.5-1.2
		c2.2,1.2,2.7,3,2.7,3l-1.8,1.2c0,0-0.5-1.6-1.9-2.3c-0.9-0.5-2-0.4-2.4,0.4c-1.1,2,4.4,4.4,2.5,8c-1,1.8-3.2,2.5-5.5,1.2
		c-2.5-1.4-3-3.7-3-3.7L69.1,49.6z"/>
	<path class="st7" d="M77.8,54.4c0,0,0.6,1.9,2.1,2.7c0.9,0.5,1.9,0.5,2.4-0.5c1.1-2-4.4-4.6-2.5-8c1-1.9,3.4-2.4,5.5-1.2
		c2.2,1.2,2.7,3,2.7,3l-1.8,1.2c0,0-0.5-1.6-1.9-2.3c-0.9-0.5-2-0.4-2.4,0.4c-1.1,2,4.4,4.4,2.5,8c-1,1.8-3.2,2.5-5.5,1.2
		c-2.5-1.4-3-3.7-3-3.7L77.8,54.4z"/>
	<path class="st7" d="M90.9,50.8l2,1.1l-5.2,9.4l4.8,2.7l-1,1.7L84.7,62L90.9,50.8z"/>
</g>
<g>
	<path class="st7" d="M60,88.9L60,88.9c-3.6-2-5-6.5-3-10.2l1.7-3.1l13.2,7.1l-1.7,3.1C68.2,89.5,63.6,90.8,60,88.9z"/>
	<path class="st8" d="M68.6,84.4l-9.7-5.2l2.6-4.8c1.4-2.7,4.8-3.7,7.5-2.2h0c2.7,1.4,3.7,4.8,2.2,7.5L68.6,84.4z"/>
</g>
<line class="st9" x1="64.1" y1="82" x2="62.7" y2="84.6"/>
</svg>
