<?xml version="1.0" encoding="utf-8"?>
<!-- Generator: Adobe Illustrator 21.0.0, SVG Export Plug-In . SVG Version: 6.00 Build 0)  -->
<svg version="1.1" id="Layer_3" xmlns="http://www.w3.org/2000/svg" xmlns:xlink="http://www.w3.org/1999/xlink" x="0px" y="0px"
	 width="145px" height="145px" viewBox="0 0 145 145" style="enable-background:new 0 0 145 145;" xml:space="preserve">
<style type="text/css">
	.st0{fill:#F2F2F2;}
	.st1{fill:#D8D8D8;}
	.st2{fill:none;stroke:#180293;stroke-width:7;stroke-linecap:round;stroke-miterlimit:10;}
	.st3{fill:#180293;}
	.st4{fill:#243EC6;}
	.st5{fill:#FFFFFF;}
	.st6{fill:#2579DC;}
	.st7{fill:none;stroke:#2579DC;stroke-width:2;stroke-linecap:round;stroke-miterlimit:10;}
	.st8{fill:none;stroke:#DE4F03;stroke-width:4;stroke-linecap:round;stroke-miterlimit:10;}
	.st9{fill:none;stroke:#243EC6;stroke-width:10;stroke-linecap:round;stroke-miterlimit:10;}
	.st10{fill:none;stroke:#DE4F03;stroke-width:2;stroke-miterlimit:10;}
</style>
<g>
	<circle class="st0" cx="72" cy="73" r="65"/>
	<ellipse class="st1" cx="72" cy="123" rx="25" ry="10"/>
</g>
<path class="st2" d="M91.1,100.5c-20.7,7.5-45.6-0.2-45.6-0.2"/>
<path class="st2" d="M107.3,81.7c37.9-65.5-19.4-91-55.8-31.2"/>
<ellipse transform="matrix(0.5623 -0.8269 0.8269 0.5623 -36.9809 122.891)" class="st3" cx="97.6" cy="96.4" rx="24.2" ry="16.2"/>
<ellipse transform="matrix(0.5623 -0.8269 0.8269 0.5623 -37.6851 129.2465)" class="st4" cx="103.2" cy="100.2" rx="20" ry="13.4"/>
<g>
	<path class="st5" d="M118.8,97.8c0-2.5-0.2-4.9-0.8-7.2c-0.7-2.2-1.9-4.3-3.7-5.6c-1.7-1.4-4-2-6.3-1.9c-2.3,0-4.7,0.6-7.1,1.5
		c2-1.6,4.3-2.7,6.9-3c1.3-0.2,2.7-0.1,4,0.2c1.3,0.3,2.6,0.9,3.7,1.7c1.1,0.8,2,1.9,2.7,3.1c0.6,1.2,1.1,2.4,1.3,3.7
		C120,92.9,119.7,95.5,118.8,97.8z"/>
</g>
<ellipse transform="matrix(0.5623 -0.8269 0.8269 0.5623 -38.0744 130.5111)" class="st3" cx="104.2" cy="101.2" rx="12.1" ry="8.1"/>
<g>
	<path class="st6" d="M97.6,96.7c-1.1,2.4-2.1,4.9-2.3,7.4c-0.1,1.3-0.1,2.6,0.3,3.8c0.3,1.2,0.9,2.4,1.9,3.3
		c-1.2-0.6-2.2-1.7-2.7-3.1c-0.5-1.3-0.6-2.7-0.5-4.1C94.5,101.3,95.8,98.7,97.6,96.7z"/>
</g>
<line class="st7" x1="89.1" y1="53.9" x2="96.1" y2="44.9"/>
<line class="st8" x1="85.5" y1="58.5" x2="92.5" y2="49.5"/>
<path class="st9" d="M91.1,17.8c11.6-2.3,25,6.3,27.3,17.9"/>
<g>
	<path class="st6" d="M89.3,15c3.5-1.1,7.3-1.2,10.9-0.5c3.6,0.7,7.1,2.1,10.2,4.1c3.1,2,5.8,4.6,7.9,7.7c2.1,3.1,3.5,6.6,3.8,10.2
		c-1.1-3.4-2.8-6.6-5-9.3c-2.2-2.7-4.8-5.1-7.8-7c-2.9-1.9-6.1-3.4-9.5-4.3C96.4,15.1,92.9,14.7,89.3,15z"/>
</g>
<ellipse transform="matrix(0.5623 -0.8269 0.8269 0.5623 -31.6965 62.5607)" class="st3" cx="43.2" cy="61.2" rx="20" ry="13.4"/>
<ellipse transform="matrix(0.5623 -0.8269 0.8269 0.5623 -31.9661 68.3653)" class="st4" cx="48.6" cy="64.4" rx="24.2" ry="16.2"/>
<ellipse transform="matrix(0.5623 -0.8269 0.8269 0.5623 -32.3296 71.3646)" class="st3" cx="51.2" cy="66.2" rx="13.9" ry="9.3"/>
<g>
	<path class="st6" d="M43.5,61c-0.7,1.3-1.4,2.7-1.9,4.2c-0.5,1.4-0.8,2.9-0.9,4.4c-0.1,1.5,0,3,0.5,4.3c0.5,1.4,1.3,2.6,2.5,3.4
		c1.2,0.8,2.6,1.1,4,1c1.4,0,2.9-0.5,4.2-1.1c1.4-0.6,2.6-1.5,3.8-2.5c1.2-1,2.2-2.1,3.2-3.3c-0.8,1.3-1.7,2.6-2.8,3.7
		c-1.1,1.1-2.4,2.1-3.7,2.8c-1.4,0.8-2.9,1.3-4.6,1.4c-1.6,0.1-3.3-0.3-4.7-1.2c-1.4-1-2.4-2.4-2.8-4c-0.5-1.6-0.6-3.2-0.4-4.8
		C40.3,66.3,41.6,63.4,43.5,61z"/>
</g>
<path class="st10" d="M34,83.7c-22,26-39.2-23.1,20.5-55.2C74,18,54,5,39.5,19.5c-3.6,3.6,0.5,5.2,2,0C45,7,34.3-8.2,26,12
	C13.5,42.5,58,98,89,54"/>
<g>
	<path class="st5" d="M67.2,61.6c0-2.6-0.2-5.1-0.8-7.4c-0.7-2.3-1.9-4.4-3.8-5.7c-1.8-1.4-4.1-2-6.5-2c-2.4,0-4.8,0.7-7.3,1.5
		c2-1.6,4.5-2.7,7.1-3.1c1.3-0.2,2.7-0.1,4.1,0.2c1.4,0.3,2.6,0.9,3.8,1.8c1.1,0.9,2,1.9,2.7,3.1c0.7,1.2,1.1,2.5,1.4,3.8
		C68.4,56.5,68.1,59.1,67.2,61.6z"/>
</g>
<circle class="st3" cx="45.6" cy="100.7" r="6.9"/>
</svg>
