<?xml version="1.0" encoding="utf-8"?>
<!-- Generator: Adobe Illustrator 21.0.0, SVG Export Plug-In . SVG Version: 6.00 Build 0)  -->
<svg version="1.1" id="Layer_2" xmlns="http://www.w3.org/2000/svg" xmlns:xlink="http://www.w3.org/1999/xlink" x="0px" y="0px"
	 width="145px" height="145px" viewBox="0 0 145 145" style="enable-background:new 0 0 145 145;" xml:space="preserve">
<style type="text/css">
	.st0{fill:#F2F2F2;}
	.st1{fill:#D8D8D8;}
	.st2{fill:#243EC6;}
	.st3{fill:#180293;}
	.st4{fill:#2579DC;}
	.st5{fill:none;stroke:#2579DC;stroke-width:4;stroke-linecap:round;stroke-linejoin:round;stroke-miterlimit:10;}
	.st6{fill:none;stroke:#FFFFFF;stroke-width:4;stroke-linecap:round;stroke-linejoin:round;stroke-miterlimit:10;}
	.st7{fill:#FFFFFF;}
	.st8{fill:#0F0066;}
	.st9{fill:#DE4F03;}
	.st10{fill:#FF8C42;}
</style>
<g>
	<circle class="st0" cx="72" cy="73" r="65"/>
	<ellipse class="st1" cx="72" cy="123" rx="25" ry="10"/>
</g>
<circle class="st2" cx="87.7" cy="47.7" r="31"/>
<path class="st2" d="M105.7,104.7L26,58.6c-1.9-1.1-2.6-3.6-1.5-5.5L53.8,2.5c1.1-1.9,3.6-2.6,5.5-1.5l79.7,46
	c1.9,1.1,2.6,3.6,1.5,5.5l-29.2,50.6C110.1,105.1,107.6,105.8,105.7,104.7z"/>
<path class="st3" d="M101.8,110.7L22,64.6c-1.9-1.1-2.5-3.5-1.4-5.4l28.3-49c1.1-1.9,3.5-2.5,5.4-1.4L134,54.9
	c1.9,1.1,2.5,3.5,1.4,5.4l-28.3,49C106.1,111.1,103.7,111.8,101.8,110.7z"/>
<g>
	<path class="st4" d="M54.2,8.8c6.8,3.7,13.5,7.4,20.1,11.2l20,11.4L114.2,43l9.9,5.9l9.9,6l-10.1-5.5l-10-5.6l-20-11.4L73.9,20.6
		C67.3,16.7,60.7,12.8,54.2,8.8z"/>
</g>
<g>
	<line class="st5" x1="65.9" y1="30.9" x2="48.9" y2="60.4"/>
	<line class="st6" x1="65.9" y1="30.9" x2="60.9" y2="39.5"/>
	<line class="st5" x1="87.5" y1="43.4" x2="70.5" y2="72.9"/>
	<line class="st5" x1="109.2" y1="55.9" x2="92.2" y2="85.4"/>
	<line class="st6" x1="109.2" y1="55.9" x2="99.2" y2="73.2"/>
	<ellipse transform="matrix(0.5 -0.866 0.866 0.5 -3.7709 72.4928)" class="st4" cx="60.9" cy="39.5" rx="6.5" ry="6.5"/>
	<ellipse transform="matrix(0.5 -0.866 0.866 0.5 3.156 97.4927)" class="st4" cx="86" cy="46" rx="6.5" ry="6.5"/>
	<ellipse transform="matrix(0.5 -0.866 0.866 0.5 -15.6741 122.3947)" class="st4" cx="98.2" cy="74.8" rx="6.5" ry="6.5"/>
</g>
<g>
	<path class="st7" d="M88.3,40.4c0.8,0.2,1.6,0.8,2.2,1.4c0.6,0.7,1,1.5,1.3,2.4c0.2,0.9,0.3,1.8,0.1,2.7c-0.2,0.9-0.6,1.7-1.2,2.4
		c0.5-1.7,0.6-3.3,0.2-4.8C90.4,42.9,89.5,41.6,88.3,40.4z"/>
</g>
<g>
	<path class="st7" d="M100.7,69.3c0.8,0.2,1.6,0.8,2.2,1.4c0.6,0.7,1,1.5,1.3,2.4c0.2,0.9,0.3,1.8,0.1,2.7c-0.2,0.9-0.6,1.7-1.2,2.4
		c0.5-1.7,0.6-3.3,0.2-4.8C102.8,71.9,101.9,70.5,100.7,69.3z"/>
</g>
<g>
	<path class="st7" d="M63.4,34.2c0.8,0.2,1.6,0.8,2.2,1.4c0.6,0.7,1,1.5,1.3,2.4c0.2,0.9,0.3,1.8,0.1,2.7c-0.2,0.9-0.6,1.7-1.2,2.4
		c0.5-1.7,0.6-3.3,0.2-4.8C65.5,36.7,64.6,35.4,63.4,34.2z"/>
</g>
<path class="st8" d="M49.3,49.4c-12,0-22.6,5.3-29,13.3c0.3,0.8,0.9,1.4,1.6,1.9l56.8,32.8c3.6-4.9,5.8-10.7,5.8-17
	C84.5,63.3,68.8,49.4,49.3,49.4z"/>
<circle class="st9" cx="53.5" cy="80.4" r="31"/>
<path class="st7" d="M44.8,57C31.9,61.7,25.3,76,30,88.9c4.7,12.9,19,19.6,31.9,14.8c12.9-4.7,19.6-19,14.8-31.9
	C72,59,57.7,52.3,44.8,57z M32.3,88c-1.1-3-1.5-6.2-1.3-9.2l20.1,23.8C42.8,101.8,35.4,96.4,32.3,88z M61,101.4
	c-2.1,0.8-4.2,1.2-6.3,1.3l-0.4-20.6l12.9,15.3c0.1,0.1,0.2,0.2,0.3,0.2C65.6,99.2,63.5,100.5,61,101.4z M52.6,69.5
	c1.2-0.5,2.3-1.1,2.3-1.1c1.1-0.5,0.3-2.2-0.8-1.7c0,0-3.3,1.5-5.5,2.3c-2.1,0.8-5.6,1.8-5.6,1.8c-1.2,0.3-0.7,2.1,0.5,1.8
	c0,0,1.1-0.3,2.3-0.6l6.5,7.8l0.4,15.5l-16-20c1.2-0.5,2.3-1.1,2.3-1.1c1.1-0.5,0.3-2.2-0.8-1.7c0,0-3.3,1.5-5.5,2.3
	c-0.4,0.1-0.9,0.3-1.4,0.5c1.7-7.1,6.8-13.2,14.1-15.9c5.5-2,11.2-1.7,16.2,0.3c-0.1,0-0.2,0-0.3,0.1c-2.1,0.8-2.9,3.1-2.2,5
	c0.6,1.7,2.2,2.8,3.9,4.2c1.3,1.1,2.9,2.6,3.8,5.2c0.7,1.8,0.7,4.1,0.9,7.4l0.5,7.8L52.6,69.5z M68.1,63.6c2.7,2.4,4.9,5.5,6.3,9.1
	c2.8,7.8,1.1,16.1-3.8,22l-0.4-20.9c0.1-3.4-0.4-6-1.1-8.1C68.8,64.9,68.4,64.2,68.1,63.6z"/>
<g>
	<path class="st10" d="M64,51.9c0.9,0.4,1.9,0.7,2.8,1.1c0.9,0.4,1.8,0.9,2.7,1.4c0.9,0.5,1.7,1.1,2.6,1.7c0.8,0.6,1.6,1.3,2.4,1.9
		c3.1,2.8,5.5,6.2,7.2,9.9c1.7,3.8,2.6,7.9,2.6,12c0,1,0,2.1-0.1,3.1c-0.1,1-0.3,2-0.4,3c-0.3,1-0.5,2-0.8,3c-0.3,1-0.7,1.9-1.1,2.9
		c1.2-3.9,1.8-7.9,1.6-11.9c-0.2-4-1.1-8-2.8-11.6c-1.6-3.7-4-7-6.8-9.8C71.2,55.8,67.7,53.5,64,51.9z"/>
</g>
</svg>
