<?xml version="1.0" encoding="utf-8"?>
<!-- Generator: Adobe Illustrator 24.0.1, SVG Export Plug-In . SVG Version: 6.00 Build 0)  -->
<svg version="1.1" id="Layer_2" xmlns="http://www.w3.org/2000/svg" xmlns:xlink="http://www.w3.org/1999/xlink" x="0px" y="0px"
	 width="145px" height="145px" viewBox="0 0 145 145" style="enable-background:new 0 0 145 145;" xml:space="preserve">
<style type="text/css">
	.st0{fill:#F2F2F2;}
	.st1{fill:#D8D8D8;}
	.st2{fill:#243EC6;}
	.st3{fill:#180293;}
	.st4{fill:#0F0066;}
	.st5{fill:#2579DC;}
	.st6{fill:#DE4F03;}
	.st7{fill:#FF8C42;}
	.st8{fill:none;stroke:#FFFFFF;stroke-width:2;stroke-miterlimit:10;}
	.st9{fill:none;stroke:#FFFFFF;stroke-width:2;stroke-linecap:round;stroke-linejoin:round;stroke-miterlimit:10;}
</style>
<g>
	<circle class="st0" cx="72.4" cy="73.8" r="65"/>
	<ellipse class="st1" cx="72.4" cy="123.8" rx="25" ry="10"/>
</g>
<path class="st2" d="M105.1,105.4l-79.7-46c-1.9-1.1-2.6-3.6-1.5-5.5L53.2,3.3c1.1-1.9,3.6-2.6,5.5-1.5l79.7,46
	c1.9,1.1,2.6,3.6,1.5,5.5L110.6,104C109.5,105.9,107,106.5,105.1,105.4z"/>
<path class="st3" d="M101.2,111.9L21.4,65.8c-1.9-1.1-2.5-3.5-1.4-5.4L53.2,3.3l18.2,65.2l68.4-15.2l-33.3,57.1
	C105.5,112.3,103.1,113,101.2,111.9z"/>
<path class="st4" d="M50,49.2c-12,0-22.6,5.5-29,13.8c0.3,0.8,0.9,1.5,1.6,2L79.5,99c3.6-5.1,5.8-11.1,5.8-17.6
	C85.3,63.6,69.5,49.2,50,49.2z"/>
<g>
	<path class="st5" d="M24.9,62.1l40.7-8.3c0.3-0.1,0.5,0.1,0.6,0.4s-0.1,0.5-0.4,0.6c0,0,0,0,0,0L24.9,62.1z"/>
</g>
<g>
	<path class="st5" d="M102.3,104.6l-8.3-40.7c-0.1-0.3,0.1-0.5,0.4-0.6c0.3-0.1,0.5,0.1,0.6,0.4c0,0,0,0,0,0L102.3,104.6z"/>
</g>
<g>
	<path class="st5" d="M53.2,3.3c3.2,10.8,6.4,21.7,9.5,32.5l9.2,32.6l-0.6-0.4l17.1-3.8l17.1-3.7l17.1-3.7l17.2-3.6l-17,4l-17.1,3.9
		l-17.1,3.9L71.5,69c-0.3,0.1-0.5-0.1-0.6-0.4l-9-32.6C59,25.1,56,14.2,53.2,3.3z"/>
</g>
<circle class="st6" cx="55.1" cy="80.2" r="31"/>
<g>
	<path class="st7" d="M65.7,51.4c0.9,0.4,1.9,0.7,2.8,1.1c0.9,0.4,1.8,0.9,2.7,1.4c0.9,0.5,1.7,1.1,2.6,1.7c0.8,0.6,1.6,1.3,2.4,1.9
		c3.1,2.8,5.5,6.2,7.2,9.9c1.7,3.8,2.6,7.9,2.6,12c0,1,0,2.1-0.1,3.1c-0.1,1-0.3,2-0.4,3c-0.3,1-0.5,2-0.8,3c-0.3,1-0.7,1.9-1.1,2.9
		c1.2-3.9,1.8-7.9,1.6-11.9c-0.2-4-1.1-8-2.8-11.6c-1.6-3.7-4-7-6.8-9.8C72.9,55.3,69.5,53,65.7,51.4z"/>
</g>
<path class="st8" d="M55.7,62.2c4.4,0,7.9,3.7,7.9,8.2s-3.6,11.2-7.9,11.2s-7.9-6.6-7.9-11.2S51.3,62.2,55.7,62.2z"/>
<path class="st8" d="M59.6,78.9c5,1.1,11,5.2,8.7,10.2c-1.7,3.8-8.5,10.8-12.6,10.8s-10.9-7-12.6-10.8c-2.2-4.8,3.6-8.9,8.4-10.1"/>
<path class="st9" d="M47.8,70.4c6,1.5,11.1-2.3,11.1-2.3s1.5,3.3,4.3,3.7"/>
<polyline class="st9" points="48.4,80.6 50.8,87.1 55.3,84.1 60.5,87.1 62.8,80.2 "/>
</svg>
